<svg xmlns="http://www.w3.org/2000/svg" width="25" height="24" viewBox="0 0 25 24" fill="none">
    <path d="M20.531 9.53068L13.031 17.0307C12.9614 17.1004 12.8787 17.1557 12.7876 17.1935C12.6966 17.2312 12.599 17.2506 12.5004 17.2506C12.4019 17.2506 12.3043 17.2312 12.2132 17.1935C12.1222 17.1557 12.0394 17.1004 11.9698 17.0307L4.46979 9.53068C4.32906 9.38995 4.25 9.19907 4.25 9.00005C4.25 8.80103 4.32906 8.61016 4.46979 8.46943C4.61052 8.32869 4.80139 8.24963 5.00042 8.24963C5.19944 8.24963 5.39031 8.32869 5.53104 8.46943L12.5004 15.4397L19.4698 8.46943C19.5395 8.39974 19.6222 8.34447 19.7132 8.30676C19.8043 8.26904 19.9019 8.24963 20.0004 8.24963C20.099 8.24963 20.1965 8.26904 20.2876 8.30676C20.3786 8.34447 20.4614 8.39974 20.531 8.46943C20.6007 8.53911 20.656 8.62183 20.6937 8.71288C20.7314 8.80392 20.7508 8.9015 20.7508 9.00005C20.7508 9.0986 20.7314 9.19618 20.6937 9.28722C20.656 9.37827 20.6007 9.46099 20.531 9.53068Z" fill="white"/>
</svg>